<svg xmlns="http://www.w3.org/2000/svg" width="20" height="20" viewBox="0 0 20 20">
  <defs>
    <style>
      .cls-1 {
        fill: #f55661;
        fill-rule: evenodd;
      }
    </style>
  </defs>
  <path id="Icon6" class="cls-1" d="M87,452v-0.834h20V452H87Zm17.917-1.667h-2.5a0.833,0.833,0,0,1-.834-0.833V438.25a0.833,0.833,0,0,1,.834-0.833h2.5a0.833,0.833,0,0,1,.833.833V449.5A0.833,0.833,0,0,1,104.917,450.333Zm0-12.083h-2.5v1.25h2.5v-1.25Zm0,2.083h-2.5V449.5h2.5v-9.167Zm-6.667,2.084a0.833,0.833,0,0,1,.833.833v6.25a0.833,0.833,0,0,1-.833.833h-2.5a0.833,0.833,0,0,1-.833-0.833v-6.25a0.833,0.833,0,0,1,.833-0.833h2.5Zm-2.5,7.083h2.5v-4.167h-2.5V449.5Zm0-5h2.5v-1.25h-2.5v1.25Zm-4.167-3.333a0.833,0.833,0,0,1,.833.833v7.5a0.833,0.833,0,0,1-.833.833h-2.5a0.833,0.833,0,0,1-.833-0.833V442a0.833,0.833,0,0,1,.833-0.833h2.5Zm-2.5,8.333h2.5v-5.417h-2.5V449.5Zm0-6.25h2.5V442h-2.5v1.25Zm14.584-9.828-5.652,5.652a1.436,1.436,0,0,1-2.03,0l-3.142-3.142a0.6,0.6,0,0,0-.852,0l-3.979,3.979-0.589-.589,3.98-3.98a1.436,1.436,0,0,1,2.03,0l3.142,3.143a0.6,0.6,0,0,0,.852,0l5.651-5.652h-1.911V432h2.917a0.417,0.417,0,0,1,.417.417v2.916h-0.833v-1.911Z" transform="translate(-87 -432)"/>
</svg>
