<svg xmlns="http://www.w3.org/2000/svg" width="20" height="17" viewBox="0 0 20 17">
  <defs>
    <style>
      .cls-1 {
        fill: #f55661;
        fill-rule: evenodd;
      }
    </style>
  </defs>
  <path id="Icon4" class="cls-1" d="M89.442,343.827a5.9,5.9,0,0,0-3.442,5.1,5.213,5.213,0,0,0,1.085,3.141l-0.649,2a0.4,0.4,0,0,0,.1.407,0.423,0.423,0,0,0,.42.1l2.233-.683A8.689,8.689,0,0,0,93.5,355a7.734,7.734,0,0,0,6.844-3.608,5.85,5.85,0,0,0-1.146.248,7.16,7.16,0,0,1-5.7,2.55,7.806,7.806,0,0,1-4.035-1.082,0.425,0.425,0,0,0-.345-0.042l-1.649.505,0.473-1.457a0.4,0.4,0,0,0-.07-0.372,4.467,4.467,0,0,1-1.042-2.814,4.941,4.941,0,0,1,2.5-4.1c0,0.019-.022.051,0,0.056A1.894,1.894,0,0,0,89.442,343.827Zm10.9,7.565a9.107,9.107,0,0,0,2.065-.86l2.632,0.806a0.424,0.424,0,0,0,.42-0.1,0.4,0.4,0,0,0,.1-0.408l-0.774-2.385a5.991,5.991,0,0,0,1.21-3.564c0-3.794-3.738-6.881-8.333-6.881-4.16,0-7.608,2.533-8.225,5.827a3.276,3.276,0,0,1-.105,1c0,0.019,0,.037,0,0.056,0,3.794,3.738,6.881,8.333,6.881a9.952,9.952,0,0,0,1.531-.122m3.282-1.935a0.426,0.426,0,0,0-.345.042,8.642,8.642,0,0,1-4.468,1.2c-4.135,0-7.5-2.723-7.5-6.071s3.365-6.071,7.5-6.071,7.5,2.723,7.5,6.071a5.239,5.239,0,0,1-1.17,3.244,0.4,0.4,0,0,0-.066.368l0.6,1.839Z" transform="translate(-86 -338)"/>
</svg>
