<svg id="Icon5" xmlns="http://www.w3.org/2000/svg" width="21" height="20.25" viewBox="0 0 21 20.25">
  <defs>
    <style>
      .cls-1 {
        fill: #4e545e;
      }

      .cls-1, .cls-2 {
        fill-rule: evenodd;
      }

      .cls-2 {
        fill: #f55661;
      }
    </style>
  </defs>
  <path id="Shape2" class="cls-1" d="M85.634,394.842h2.111a0.653,0.653,0,0,1,.463.265,1.972,1.972,0,0,1,.39.97,3.131,3.131,0,0,0,.721,1.662,1.863,1.863,0,0,0,1.386.662,1.81,1.81,0,0,0,1.314-.6,3.069,3.069,0,0,0,.747-1.551l0.747-3.852a1.692,1.692,0,0,1,.421-0.909l0.054-.039,0.27-.154h0.08a0.572,0.572,0,0,1,.453.231,1.829,1.829,0,0,1,.4.989l1.337,9.164a3.075,3.075,0,0,0,.71,1.666,1.782,1.782,0,0,0,2.77,0,3.082,3.082,0,0,0,.712-1.666l0.825-5.609a1.964,1.964,0,0,1,.379-0.954,0.669,0.669,0,0,1,.472-0.277h1.974a0.641,0.641,0,0,0,.443-1.094,0.615,0.615,0,0,0-.441-0.189H102.4a1.942,1.942,0,0,0-1.442.731,3.3,3.3,0,0,0-.666,1.6l-0.812,5.6a1.843,1.843,0,0,1-.4.989,0.594,0.594,0,0,1-.452.243,0.617,0.617,0,0,1-.442-0.231,1.848,1.848,0,0,1-.411-1l-1.323-9.164a3.134,3.134,0,0,0-.722-1.665,1.889,1.889,0,0,0-1.386-.65,1.86,1.86,0,0,0-1.33.592,3.068,3.068,0,0,0-.732,1.548L91.528,396a1.842,1.842,0,0,1-.4.9l-0.034.039-0.349.2-0.116-.028a0.688,0.688,0,0,1-.383-0.222,1.962,1.962,0,0,1-.409-0.992,3.091,3.091,0,0,0-.67-1.608,1.879,1.879,0,0,0-1.428-.728H85.634A0.637,0.637,0,0,0,85,394.2,0.63,0.63,0,0,0,85.634,394.842Z" transform="translate(-85 -383.75)"/>
  <path id="Shape1" class="cls-2" d="M105.358,392.785h-2.137a0.666,0.666,0,0,1-.469-0.261,1.924,1.924,0,0,1-.395-0.957,3.053,3.053,0,0,0-.73-1.64,1.908,1.908,0,0,0-1.4-.653,1.854,1.854,0,0,0-1.33.594,3,3,0,0,0-.757,1.531l-0.756,3.8a1.649,1.649,0,0,1-.426.9l-0.055.039-0.273.152H96.546a0.586,0.586,0,0,1-.459-0.228,1.778,1.778,0,0,1-.4-0.976L94.33,386.04a3,3,0,0,0-.719-1.643,1.835,1.835,0,0,0-2.8,0,3,3,0,0,0-.721,1.643l-0.835,5.535a1.9,1.9,0,0,1-.384.941,0.679,0.679,0,0,1-.478.273h-2a0.637,0.637,0,0,0-.639.634,0.625,0.625,0,0,0,.189.446,0.633,0.633,0,0,0,.447.186h2a1.983,1.983,0,0,0,1.46-.721,3.206,3.206,0,0,0,.674-1.576l0.822-5.53a1.79,1.79,0,0,1,.4-0.975,0.605,0.605,0,0,1,.458-0.24,0.63,0.63,0,0,1,.447.228,1.8,1.8,0,0,1,.416.989l1.34,9.04a3.052,3.052,0,0,0,.731,1.643,1.931,1.931,0,0,0,1.4.641,1.909,1.909,0,0,0,1.347-.583,3,3,0,0,0,.741-1.528l0.759-3.8a1.8,1.8,0,0,1,.4-0.885l0.035-.038,0.353-.2,0.117,0.028a0.7,0.7,0,0,1,.387.219,1.9,1.9,0,0,1,.414.979,3.01,3.01,0,0,0,.679,1.586,1.917,1.917,0,0,0,1.445.718h2.137a0.637,0.637,0,0,0,.639-0.633A0.629,0.629,0,0,0,105.358,392.785Z" transform="translate(-85 -383.75)"/>
</svg>
