<svg id="Page1" xmlns="http://www.w3.org/2000/svg" width="19.5" height="17.375" viewBox="0 0 19.5 17.375">
  <defs>
    <style>
      .cls-1 {
        fill: #d9525c;
      }

      .cls-1, .cls-2 {
        fill-rule: evenodd;
      }

      .cls-2 {
        fill: #495058;
      }
    </style>
  </defs>
  <g id="Icon1">
    <path class="cls-1" d="M101.267,80.157H90.661V79.251l1.3-1.334V75.3a3.986,3.986,0,0,1,3.164-3.971V70.95a0.838,0.838,0,1,1,1.674,0v0.382A3.987,3.987,0,0,1,99.965,75.3v2.613l1.3,1.334v0.906Zm-5.3,2.235A1.222,1.222,0,0,1,94.8,81.235h2.325A1.222,1.222,0,0,1,95.964,82.392Zm6.225-3.74-1.144-1.173V75.3a5.081,5.081,0,0,0-3.211-4.784,1.91,1.91,0,0,0-3.738,0,5.081,5.081,0,0,0-3.21,4.784v2.175l-1.144,1.173a0.553,0.553,0,0,0-.159.388V80.7a0.54,0.54,0,0,0,.54.539h3.6a2.241,2.241,0,0,0,4.482,0h3.6a0.54,0.54,0,0,0,.54-0.539V79.039A0.56,0.56,0,0,0,102.189,78.652Z" transform="translate(-86.25 -66.094)"/>
    <path class="cls-2" d="M99.444,68.377l-0.263.64a0.231,0.231,0,0,0,.121.3,5.2,5.2,0,0,1,3,4.457,0.23,0.23,0,0,0,.23.224l0.69,0a0.23,0.23,0,0,0,.23-0.238,6.356,6.356,0,0,0-3.705-5.5A0.229,0.229,0,0,0,99.444,68.377Zm0.874-2.133-0.261.64a0.229,0.229,0,0,0,.122.3,7.517,7.517,0,0,1,4.43,6.577,0.23,0.23,0,0,0,.23.225l0.69,0a0.23,0.23,0,0,0,.23-0.236,8.67,8.67,0,0,0-5.135-7.624A0.23,0.23,0,0,0,100.318,66.244Zm-7.762,2.133,0.263,0.64a0.231,0.231,0,0,1-.121.3,5.2,5.2,0,0,0-3,4.457,0.23,0.23,0,0,1-.23.224l-0.69,0a0.231,0.231,0,0,1-.23-0.238,6.358,6.358,0,0,1,3.705-5.5A0.229,0.229,0,0,1,92.556,68.377Zm-0.874-2.133,0.261,0.64a0.23,0.23,0,0,1-.122.3,7.516,7.516,0,0,0-4.43,6.577,0.23,0.23,0,0,1-.23.225l-0.69,0a0.231,0.231,0,0,1-.23-0.236,8.671,8.671,0,0,1,5.135-7.624A0.231,0.231,0,0,1,91.682,66.244Z" transform="translate(-86.25 -66.094)"/>
  </g>
</svg>
