<svg id="Page3" xmlns="http://www.w3.org/2000/svg" width="20" height="18" viewBox="0 0 20 18">
  <defs>
    <style>
      .cls-1 {
        fill: #fff;
        fill-rule: evenodd;
      }
    </style>
  </defs>
  <path id="Icon3" class="cls-1" d="M86.833,171.227v15.545a0.414,0.414,0,0,0,.417.41h15.833a0.414,0.414,0,0,0,.417-0.41V179h0.833v7.772a1.24,1.24,0,0,1-1.25,1.228H87.25A1.241,1.241,0,0,1,86,186.772V171.227A1.24,1.24,0,0,1,87.25,170H98.5v0.818H87.25A0.413,0.413,0,0,0,86.833,171.227Zm18.888,2.488-9.843,9.665a0.42,0.42,0,0,1-.295.12H92.667a0.413,0.413,0,0,1-.417-0.409v-2.864a0.4,0.4,0,0,1,.122-0.289l9.844-9.665a0.965,0.965,0,0,1,1.318,0l2.187,2.148A0.9,0.9,0,0,1,105.721,173.715Zm-12.638,8.967h2.328L93.083,180.4v2.285Zm0.589-2.864L96,182.1l7.536-7.4-2.328-2.285ZM105.132,173l-2.187-2.147a0.086,0.086,0,0,0-.14,0l-1.008.989,2.328,2.285,1.007-.989A0.1,0.1,0,0,0,105.132,173Zm0.589,0.716-9.843,9.665a0.42,0.42,0,0,1-.295.12H92.667a0.413,0.413,0,0,1-.417-0.409v-2.864a0.4,0.4,0,0,1,.122-0.289l9.844-9.665a0.965,0.965,0,0,1,1.318,0l2.187,2.148A0.9,0.9,0,0,1,105.721,173.715Zm-12.638,8.967h2.328L93.083,180.4v2.285Zm0.589-2.864L96,182.1l7.536-7.4-2.328-2.285ZM105.132,173l-2.187-2.147a0.086,0.086,0,0,0-.14,0l-1.008.989,2.328,2.285,1.007-.989A0.1,0.1,0,0,0,105.132,173Z" transform="translate(-86 -170)"/>
</svg>
