<svg id="Page2" xmlns="http://www.w3.org/2000/svg" width="21.75" height="19.75" viewBox="0 0 21.75 19.75">
  <defs>
    <style>
      .cls-1 {
        fill: #495059;
      }

      .cls-1, .cls-2 {
        fill-rule: evenodd;
      }

      .cls-2 {
        fill: #df535d;
      }
    </style>
  </defs>
  <g id="Icon2">
    <path id="Shape2" class="cls-1" d="M106.864,132.005h-1.138V120.977h1.138a0.868,0.868,0,0,0,0-1.735H86.83a0.868,0.868,0,0,0,0,1.735h1.14v11.028H86.83a0.868,0.868,0,0,0,0,1.735h7.057c-0.018.015-.037,0.027-0.054,0.044l-3.719,3.731a0.879,0.879,0,0,0,0,1.228,0.848,0.848,0,0,0,1.209,0l3.718-3.731a0.879,0.879,0,0,0,.005-1.229c-0.018-.018-0.039-0.032-0.058-0.048h3.727c-0.02.017-.041,0.031-0.059,0.05a0.875,0.875,0,0,0,.005,1.226l3.719,3.732a0.846,0.846,0,0,0,1.21-.007,0.874,0.874,0,0,0-.006-1.226l-3.717-3.731h0c-0.017-.017-0.036-0.029-0.053-0.044h7.054A0.868,0.868,0,0,0,106.864,132.005Zm-2.85-11.028v11.028H89.682V120.977h14.332Z" transform="translate(-85.969 -119.25)"/>
    <path id="Shape1" class="cls-2" d="M92.481,128.623l2.727-2.469,2.781,2.7a0.977,0.977,0,0,0,.681.275l0.065,0a0.984,0.984,0,0,0,.656-0.314l2.089-2.278a1,1,0,0,0,.551.165,0.971,0.971,0,0,0,.963-0.976l-0.013-1.206a0.967,0.967,0,0,0-.319-0.7,1,1,0,0,0-.738-0.248l-1.215.1a0.973,0.973,0,0,0-.663.34,0.955,0.955,0,0,0-.009,1.232l-1.408,1.535-2.717-2.636a0.981,0.981,0,0,0-1.339-.023L91.167,127.2a0.961,0.961,0,0,0-.062,1.364A0.984,0.984,0,0,0,92.481,128.623Z" transform="translate(-85.969 -119.25)"/>
  </g>
</svg>
